#Comment line ignore any data following # character 
#Hierarchical Translation and Rotation (.htr) file 
[Header]	
#Header keywords are followed by a single value 
FileType HTR		#Single word string
DataType HTRS		#Translation followed by rotation and scale data
FileVersion 1		#integer
NumSegments 84		#integer
NumFrames 2		#integer
DataFrameRate 30		#integer, data frame rate in this file
EulerRotationOrder ZYX
CalibrationUnits mm
RotationUnits Degrees
GlobalAxisofGravity Y
BoneLengthAxis Y
ScaleFactor 1.00
[SegmentNames&Hierarchy]
#CHILD	PARENT
MASTER GLOBAL
root MASTER
chest root
L_mid_tent01 root
R_mid_tent01 root
spine01 root
Bip01_Neck chest
L_humerus chest
R_humerus chest
weapon_bone chest
Bip01_Head Bip01_Neck
eye_left_bone Bip01_Head
eye_right_bone Bip01_Head
L_forearm L_humerus
L_front_hand L_forearm
L_weapon_bone L_forearm
L_front_hand01_01 L_front_hand
L_front_hand02_01 L_front_hand
L_front_hand03_01 L_front_hand
L_front_hand01_02 L_front_hand01_01
L_front_hand02_02 L_front_hand02_01
L_front_hand03_02 L_front_hand03_01
R_forearm R_humerus
R_front_hand R_forearm
R_weapon_bone R_forearm
R_front_hand01_01 R_front_hand
R_front_hand02_01 R_front_hand
R_front_hand03_01 R_front_hand
R_front_hand01_02 R_front_hand01_01
R_front_hand02_02 R_front_hand02_01
R_front_hand03_02 R_front_hand03_01
null_rope01_connect L_mid_tent01
Rope1_Seg01 null_rope01_connect
Rope1_Seg02 Rope1_Seg01
Rope1_Seg03 Rope1_Seg02
Rope1_Seg04 Rope1_Seg03
Rope1_Seg05 Rope1_Seg04
Rope1_Seg06 Rope1_Seg05
Rope1_Seg07 Rope1_Seg06
Rope1_Seg09 Rope1_Seg07
L_mid_hand01 Rope1_Seg09
L_mid_hand02 Rope1_Seg09
L_mid_hand03 Rope1_Seg09
null_rope02_connect R_mid_tent01
Rope2_Seg01 null_rope02_connect
Rope2_Seg02 Rope2_Seg01
Rope2_Seg03 Rope2_Seg02
Rope2_Seg04 Rope2_Seg03
Rope2_Seg05 Rope2_Seg04
Rope2_Seg06 Rope2_Seg05
Rope2_Seg07 Rope2_Seg06
Rope2_Seg09 Rope2_Seg07
R_mid_hand01 Rope2_Seg09
R_mid_hand02 Rope2_Seg09
R_mid_hand03 Rope2_Seg09
spine02 spine01
spine03 spine02
pelvis spine03
null_rope03_connect pelvis
null_rope04_connect pelvis
Rope3_Seg01 null_rope03_connect
Rope3_Seg02 Rope3_Seg01
Rope3_Seg03 Rope3_Seg02
Rope3_Seg04 Rope3_Seg03
Rope3_Seg05 Rope3_Seg04
Rope3_Seg06 Rope3_Seg05
Rope3_Seg07 Rope3_Seg06
Rope3_Seg08 Rope3_Seg07
Rope3_Seg09 Rope3_Seg08
R_rear_hand01 Rope3_Seg09
R_rear_hand02 Rope3_Seg09
R_rear_hand03 Rope3_Seg09
Rope4_Seg01 null_rope04_connect
Rope4_Seg02 Rope4_Seg01
Rope4_Seg03 Rope4_Seg02
Rope4_Seg04 Rope4_Seg03
Rope4_Seg05 Rope4_Seg04
Rope4_Seg06 Rope4_Seg05
Rope4_Seg07 Rope4_Seg06
Rope4_Seg08 Rope4_Seg07
Rope4_Seg09 Rope4_Seg08
L_rear_hand01 Rope4_Seg09
L_rear_hand02 Rope4_Seg09
L_rear_hand03 Rope4_Seg09
[BasePosition]
#SegmentName Tx, Ty, Tz, Rx, Ry, Rz, BoneLength
MASTER 0.000000 0.000000 0.000000 -90.000000 0.000000 0.000000 10.000000 
root 0.000000 0.000000 0.000000 0.000000 0.000000 0.000000 10.000000 
chest 0.000000 0.000000 0.000000 0.000000 0.000000 0.000000 10.000000 
L_mid_tent01 0.000000 0.000000 0.000000 0.000000 0.000000 0.000000 10.000000 
R_mid_tent01 0.000000 0.000000 0.000000 0.000000 0.000000 0.000000 10.000000 
spine01 0.000000 0.000000 0.000000 0.000000 0.000000 0.000000 10.000000 
Bip01_Neck 0.000000 0.000000 0.000000 0.000000 0.000000 0.000000 10.000000 
L_humerus 0.000000 0.000000 0.000000 0.000000 0.000000 0.000000 10.000000 
R_humerus 0.000000 0.000000 0.000000 0.000000 0.000000 0.000000 10.000000 
weapon_bone 0.000000 0.000000 0.000000 0.000000 0.000000 0.000000 10.000000 
Bip01_Head 0.000000 0.000000 0.000000 0.000000 0.000000 0.000000 10.000000 
eye_left_bone 0.000000 0.000000 0.000000 0.000000 0.000000 0.000000 10.000000 
eye_right_bone 0.000000 0.000000 0.000000 0.000000 0.000000 0.000000 10.000000 
L_forearm 0.000000 0.000000 0.000000 0.000000 0.000000 0.000000 10.000000 
L_front_hand 0.000000 0.000000 0.000000 0.000000 0.000000 0.000000 10.000000 
L_weapon_bone 0.000000 0.000000 0.000000 0.000000 0.000000 0.000000 10.000000 
L_front_hand01_01 0.000000 0.000000 0.000000 0.000000 0.000000 0.000000 10.000000 
L_front_hand02_01 0.000000 0.000000 0.000000 0.000000 0.000000 0.000000 10.000000 
L_front_hand03_01 0.000000 0.000000 0.000000 0.000000 0.000000 0.000000 10.000000 
L_front_hand01_02 0.000000 0.000000 0.000000 0.000000 0.000000 0.000000 10.000000 
L_front_hand02_02 0.000000 0.000000 0.000000 0.000000 0.000000 0.000000 10.000000 
L_front_hand03_02 0.000000 0.000000 0.000000 0.000000 0.000000 0.000000 10.000000 
R_forearm 0.000000 0.000000 0.000000 0.000000 0.000000 0.000000 10.000000 
R_front_hand 0.000000 0.000000 0.000000 0.000000 0.000000 0.000000 10.000000 
R_weapon_bone 0.000000 0.000000 0.000000 0.000000 0.000000 0.000000 10.000000 
R_front_hand01_01 0.000000 0.000000 0.000000 0.000000 0.000000 0.000000 10.000000 
R_front_hand02_01 0.000000 0.000000 0.000000 0.000000 0.000000 0.000000 10.000000 
R_front_hand03_01 0.000000 0.000000 0.000000 0.000000 0.000000 0.000000 10.000000 
R_front_hand01_02 0.000000 0.000000 0.000000 0.000000 0.000000 0.000000 10.000000 
R_front_hand02_02 0.000000 0.000000 0.000000 0.000000 0.000000 0.000000 10.000000 
R_front_hand03_02 0.000000 0.000000 0.000000 0.000000 0.000000 0.000000 10.000000 
null_rope01_connect 0.000000 0.000000 0.000000 0.000000 0.000000 0.000000 10.000000 
Rope1_Seg01 0.000000 0.000000 0.000000 0.000000 0.000000 0.000000 10.000000 
Rope1_Seg02 0.000000 0.000000 0.000000 0.000000 0.000000 0.000000 10.000000 
Rope1_Seg03 0.000000 0.000000 0.000000 0.000000 0.000000 0.000000 10.000000 
Rope1_Seg04 0.000000 0.000000 0.000000 0.000000 0.000000 0.000000 10.000000 
Rope1_Seg05 0.000000 0.000000 0.000000 0.000000 0.000000 0.000000 10.000000 
Rope1_Seg06 0.000000 0.000000 0.000000 0.000000 0.000000 0.000000 10.000000 
Rope1_Seg07 0.000000 0.000000 0.000000 0.000000 0.000000 0.000000 10.000000 
Rope1_Seg09 0.000000 0.000000 0.000000 0.000000 0.000000 0.000000 10.000000 
L_mid_hand01 0.000000 0.000000 0.000000 0.000000 0.000000 0.000000 10.000000 
L_mid_hand02 0.000000 0.000000 0.000000 0.000000 0.000000 0.000000 10.000000 
L_mid_hand03 0.000000 0.000000 0.000000 0.000000 0.000000 0.000000 10.000000 
null_rope02_connect 0.000000 0.000000 0.000000 0.000000 0.000000 0.000000 10.000000 
Rope2_Seg01 0.000000 0.000000 0.000000 0.000000 0.000000 0.000000 10.000000 
Rope2_Seg02 0.000000 0.000000 0.000000 0.000000 0.000000 0.000000 10.000000 
Rope2_Seg03 0.000000 0.000000 0.000000 0.000000 0.000000 0.000000 10.000000 
Rope2_Seg04 0.000000 0.000000 0.000000 0.000000 0.000000 0.000000 10.000000 
Rope2_Seg05 0.000000 0.000000 0.000000 0.000000 0.000000 0.000000 10.000000 
Rope2_Seg06 0.000000 0.000000 0.000000 0.000000 0.000000 0.000000 10.000000 
Rope2_Seg07 0.000000 0.000000 0.000000 0.000000 0.000000 0.000000 10.000000 
Rope2_Seg09 0.000000 0.000000 0.000000 0.000000 0.000000 0.000000 10.000000 
R_mid_hand01 0.000000 0.000000 0.000000 0.000000 0.000000 0.000000 10.000000 
R_mid_hand02 0.000000 0.000000 0.000000 0.000000 0.000000 0.000000 10.000000 
R_mid_hand03 0.000000 0.000000 0.000000 0.000000 0.000000 0.000000 10.000000 
spine02 0.000000 0.000000 0.000000 0.000000 0.000000 0.000000 10.000000 
spine03 0.000000 0.000000 0.000000 0.000000 0.000000 0.000000 10.000000 
pelvis 0.000000 0.000000 0.000000 0.000000 0.000000 0.000000 10.000000 
null_rope03_connect 0.000000 0.000000 0.000000 0.000000 0.000000 0.000000 10.000000 
null_rope04_connect 0.000000 0.000000 0.000000 0.000000 0.000000 0.000000 10.000000 
Rope3_Seg01 0.000000 0.000000 0.000000 0.000000 0.000000 0.000000 10.000000 
Rope3_Seg02 0.000000 0.000000 0.000000 0.000000 0.000000 0.000000 10.000000 
Rope3_Seg03 0.000000 0.000000 0.000000 0.000000 0.000000 0.000000 10.000000 
Rope3_Seg04 0.000000 0.000000 0.000000 0.000000 0.000000 0.000000 10.000000 
Rope3_Seg05 0.000000 0.000000 0.000000 0.000000 0.000000 0.000000 10.000000 
Rope3_Seg06 0.000000 0.000000 0.000000 0.000000 0.000000 0.000000 10.000000 
Rope3_Seg07 0.000000 0.000000 0.000000 0.000000 0.000000 0.000000 10.000000 
Rope3_Seg08 0.000000 0.000000 0.000000 0.000000 0.000000 0.000000 10.000000 
Rope3_Seg09 0.000000 0.000000 0.000000 0.000000 0.000000 0.000000 10.000000 
R_rear_hand01 0.000000 0.000000 0.000000 0.000000 0.000000 0.000000 10.000000 
R_rear_hand02 0.000000 0.000000 0.000000 0.000000 0.000000 0.000000 10.000000 
R_rear_hand03 0.000000 0.000000 0.000000 0.000000 0.000000 0.000000 10.000000 
Rope4_Seg01 0.000000 0.000000 0.000000 0.000000 0.000000 0.000000 10.000000 
Rope4_Seg02 0.000000 0.000000 0.000000 0.000000 0.000000 0.000000 10.000000 
Rope4_Seg03 0.000000 0.000000 0.000000 0.000000 0.000000 0.000000 10.000000 
Rope4_Seg04 0.000000 0.000000 0.000000 0.000000 0.000000 0.000000 10.000000 
Rope4_Seg05 0.000000 0.000000 0.000000 0.000000 0.000000 0.000000 10.000000 
Rope4_Seg06 0.000000 0.000000 0.000000 0.000000 0.000000 0.000000 10.000000 
Rope4_Seg07 0.000000 0.000000 0.000000 0.000000 0.000000 0.000000 10.000000 
Rope4_Seg08 0.000000 0.000000 0.000000 0.000000 0.000000 0.000000 10.000000 
Rope4_Seg09 0.000000 0.000000 0.000000 0.000000 0.000000 0.000000 10.000000 
L_rear_hand01 0.000000 0.000000 0.000000 0.000000 0.000000 0.000000 10.000000 
L_rear_hand02 0.000000 0.000000 0.000000 0.000000 0.000000 0.000000 10.000000 
L_rear_hand03 0.000000 0.000000 0.000000 0.000000 0.000000 0.000000 10.000000 
#Beginning of Data. Separated by tabs
#Fr	Tx	Ty	Tz	Rx	Ry	Rz	SF
[MASTER]
20 -0.000715 4799.791504 986.461792 0.001660 0.001660 0.001660 4900.112305
21 -0.000755 5068.166992 740.072998 0.001660 0.001660 0.001660 5121.916504
[root]
20 -135.779572 347.453766 1724.296631 -90.502533 -49.036232 -41.166813 1764.187988
21 -142.518356 370.633057 1729.107666 -98.464592 -46.646652 -34.379257 1774.117554
[chest]
20 -84.512650 -34.090519 0.000000 5.048371 -2.994666 -179.380966 91.129311
21 -84.512650 -34.090519 0.000000 5.865076 -2.779535 -178.276474 91.129311
[L_mid_tent01]
20 27.299343 22.178526 -249.918472 -27.841528 10.557381 14.274949 252.381424
21 27.299334 22.178583 -249.918503 -25.990894 13.700059 14.960746 252.381470
[R_mid_tent01]
20 23.228794 24.509907 226.238495 84.613098 -24.951033 168.114395 228.744751
21 23.228794 24.509907 226.238495 82.131340 -23.515974 172.010300 228.744751
[spine01]
20 -0.361383 -0.195265 0.000000 0.398987 0.162928 19.764990 0.410763
21 -0.361383 -0.195265 0.000000 0.375865 0.153317 19.891264 0.410763
[Bip01_Neck]
20 165.484543 71.581718 0.000119 175.896118 1.177290 24.871183 180.302734
21 165.484543 71.581718 0.000119 175.896118 1.177290 24.871183 180.302734
[L_humerus]
20 -13.983130 -135.272980 -120.471481 -26.498669 86.549400 63.577995 181.680161
21 -13.983130 -135.272980 -120.471481 -20.957191 85.618629 69.118141 181.680161
[R_humerus]
20 -13.983309 -135.273102 125.287651 85.682007 -18.052544 1.042980 184.909012
21 -13.983309 -135.273102 125.287651 83.931625 -23.892979 2.973440 184.909012
[weapon_bone]
20 235.964890 -300.705902 0.000000 0.000000 -89.951546 -128.212341 382.234833
21 235.964890 -300.705902 0.000000 0.000000 -89.951546 -128.212341 382.234833
[Bip01_Head]
20 238.537277 191.389175 -10.047302 -43.655388 5.845809 -62.453903 305.991486
21 237.817993 193.988968 -10.161285 -45.547268 5.845059 -62.457203 307.070618
[eye_left_bone]
20 -24.626970 125.451866 -64.772606 0.000000 -90.000000 -99.840431 143.318359
21 -24.626970 125.451866 -64.772606 0.000000 -90.000000 -99.840431 143.318359
[eye_right_bone]
20 -24.626970 125.451866 64.327362 0.000000 -89.960434 80.159386 143.117676
21 -24.626970 125.451866 64.327362 0.000000 -89.960434 80.159386 143.117676
[L_forearm]
20 322.776093 0.000000 -0.000119 0.000289 -0.002329 -104.139328 322.776093
21 322.776093 0.000000 -0.000119 0.000294 -0.002329 -104.413200 322.776093
[L_front_hand]
20 241.149185 -0.042021 -3.300071 -178.667953 -1.835447 -27.422350 241.171753
21 241.149185 -0.042021 -3.300071 -178.667953 -1.835447 -27.422342 241.171753
[L_weapon_bone]
20 156.183838 0.000000 0.000000 0.000014 0.000007 0.000001 156.183838
21 156.183838 0.000000 0.000000 0.000014 0.000007 0.000001 156.183838
[L_front_hand01_01]
20 86.095154 20.947098 -0.655860 -0.366594 -0.477154 75.385574 88.609184
21 86.095154 20.947098 -0.655860 -0.366594 -0.477154 75.385574 88.609184
[L_front_hand02_01]
20 86.935165 -11.437475 24.513514 154.403519 -59.888931 -61.371990 91.046425
21 86.935165 -11.437475 24.513514 154.403519 -59.888931 -61.371990 91.046425
[L_front_hand03_01]
20 86.637497 -14.123976 -20.424902 -153.913849 58.118122 -62.702866 90.126129
21 86.637497 -14.123976 -20.424902 -153.913849 58.118122 -62.702866 90.126129
[L_front_hand01_02]
20 71.020905 -0.000179 0.000030 0.000334 -0.002323 -106.379684 71.020905
21 71.020905 -0.000179 0.000030 0.000334 -0.002323 -106.379684 71.020905
[L_front_hand02_02]
20 71.020927 -0.000119 0.000060 0.000334 -0.002323 -106.379684 71.020927
21 71.020927 -0.000119 0.000060 0.000334 -0.002323 -106.379684 71.020927
[L_front_hand03_02]
20 71.020905 -0.000060 0.000060 0.000334 -0.002323 -106.379684 71.020905
21 71.020905 -0.000060 0.000060 0.000334 -0.002323 -106.379684 71.020905
[R_forearm]
20 322.776428 -0.000060 0.000030 -0.021138 -0.210357 4.330195 322.776428
21 322.776428 -0.000060 0.000030 -0.011802 -0.210836 1.940470 322.776428
[R_front_hand]
20 238.847015 -0.006795 2.210259 -111.954979 1.645293 -6.435598 238.857239
21 238.847015 -0.006795 2.210259 -40.206936 2.482663 -4.178692 238.857239
[R_weapon_bone]
20 155.664093 0.002503 -0.000030 0.003487 0.001180 -90.988930 155.664078
21 155.664093 0.002503 -0.000030 0.003487 0.001180 -90.988930 155.664078
[R_front_hand01_01]
20 87.624611 14.231146 22.918642 -116.960205 3.496175 -1.323883 91.683487
21 87.624611 14.231146 22.918642 -154.633514 -59.950634 61.746063 91.683487
[R_front_hand02_01]
20 89.356956 14.367283 -19.491137 118.419624 -4.256595 0.610096 92.579636
21 89.356956 14.367283 -19.491137 154.602676 58.302864 63.744400 92.579636
[R_front_hand03_01]
20 87.286232 -22.307278 -0.143439 -0.387967 -0.231466 4.231439 90.091743
21 87.286232 -22.307278 -0.143439 0.162155 -0.423168 -75.767921 90.091743
[R_front_hand01_02]
20 71.020905 0.000060 0.000119 0.001777 0.001534 8.377881 71.020905
21 71.020905 0.000060 0.000119 0.002323 -0.000334 106.381714 71.020905
[R_front_hand02_02]
20 71.020844 -0.000030 -0.000119 0.001777 0.001534 8.377881 71.020836
21 71.020844 -0.000030 -0.000119 0.002323 -0.000334 106.381714 71.020836
[R_front_hand03_02]
20 71.020905 0.000000 0.000030 0.001777 0.001534 8.377881 71.020905
21 71.020905 0.000000 0.000030 0.002323 -0.000334 106.381714 71.020905
[null_rope01_connect]
20 328.732483 0.000000 -0.000238 127.624176 -60.968754 2.032912 328.732483
21 328.732483 0.000000 -0.000238 132.909149 -59.485115 -3.842961 328.732483
[Rope1_Seg01]
20 0.000000 0.000000 0.000000 30.670343 -22.272923 -105.609932 0.000000
21 0.000000 0.000000 0.000000 31.206779 -28.148087 -104.845207 0.000000
[Rope1_Seg02]
20 139.999863 -0.000179 0.000000 18.503965 -1.233531 -20.423851 139.999863
21 139.999863 -0.000179 0.000000 14.983340 -3.976914 -18.806944 139.999863
[Rope1_Seg03]
20 139.999924 0.000060 -0.000060 40.486862 -9.926488 -24.361757 139.999924
21 139.999924 0.000060 -0.000060 34.952259 -12.770033 -26.823553 139.999924
[Rope1_Seg04]
20 139.999924 -0.000060 -0.000119 33.971775 -24.081745 -15.221544 139.999924
21 139.999924 -0.000060 -0.000119 26.359152 -22.432762 -14.714915 139.999924
[Rope1_Seg05]
20 139.999832 0.000119 -0.000060 15.051840 -36.748196 -1.493898 139.999832
21 139.999832 0.000119 -0.000060 16.001917 -35.980469 -6.441992 139.999832
[Rope1_Seg06]
20 139.999954 0.000119 -0.000060 0.986887 -13.788969 3.185780 139.999954
21 139.999954 0.000119 -0.000060 1.197738 -18.602699 1.725119 139.999954
[Rope1_Seg07]
20 139.999985 0.000060 0.000000 0.004763 -5.822483 1.496985 139.999985
21 139.999985 0.000060 0.000000 -0.304664 -7.226765 0.848478 139.999985
[Rope1_Seg09]
20 121.602913 0.000119 -0.000089 -89.793175 -1.359789 0.847147 121.602913
21 121.602913 0.000119 -0.000089 -89.793175 -1.359789 0.847147 121.602913
[L_mid_hand01]
20 103.859421 1.038730 8.195221 114.520287 -53.310486 -20.623234 104.187431
21 103.859421 1.038730 8.195221 114.520287 -53.310486 -20.623234 104.187431
[L_mid_hand02]
20 105.572853 -4.139662 -10.864139 -155.067673 38.166626 -52.448818 106.211075
21 105.572853 -4.139662 -10.864139 -155.067673 38.166626 -52.448818 106.211075
[L_mid_hand03]
20 104.641464 17.579376 -3.913581 -10.970130 15.317461 57.626949 106.179977
21 104.641464 17.579376 -3.913581 -10.970130 15.317461 57.626949 106.179977
[null_rope02_connect]
20 328.732849 0.000179 -0.000119 -130.416885 -46.084957 94.379196 328.732849
21 328.732849 0.000179 -0.000119 -137.301559 -43.371391 105.264931 328.732849
[Rope2_Seg01]
20 0.000011 -0.000239 0.000078 -31.378822 46.438965 77.158096 0.000252
21 0.000013 -0.000260 0.000082 -19.575911 50.357212 91.312950 0.000273
[Rope2_Seg02]
20 139.999741 -0.000060 -0.000119 -0.082668 -0.889017 -0.606046 139.999756
21 139.999741 -0.000060 -0.000119 -0.254918 0.274655 -1.799268 139.999756
[Rope2_Seg03]
20 140.000107 0.000030 0.000000 -0.051521 -0.290347 -0.482900 140.000107
21 140.000107 0.000030 0.000000 -0.218290 0.453232 -1.834151 140.000107
[Rope2_Seg04]
20 139.999802 0.000000 -0.000060 -0.041943 -0.275427 -0.379073 139.999802
21 139.999802 0.000000 -0.000060 -0.195042 1.209823 -2.231186 139.999802
[Rope2_Seg05]
20 139.999985 -0.000060 0.000119 -0.129781 -1.724607 -0.139835 139.999985
21 139.999985 -0.000060 0.000119 -0.161873 -1.359590 -0.807591 139.999985
[Rope2_Seg06]
20 139.999893 -0.000030 -0.000119 -0.165862 -1.863013 -0.040159 139.999893
21 139.999893 -0.000030 -0.000119 -0.164173 -2.599526 0.331890 139.999893
[Rope2_Seg07]
20 139.999893 0.000060 -0.000060 -0.131257 -0.992524 -0.071389 139.999893
21 139.999893 0.000060 -0.000060 -0.150827 -1.269508 -0.075800 139.999893
[Rope2_Seg09]
20 121.338966 0.000089 -0.000060 -111.457184 0.547391 -1.505709 121.338966
21 121.338966 0.000089 -0.000060 -28.679514 0.545860 -1.505949 121.338966
[R_mid_hand01]
20 104.680779 11.144459 -10.335981 -25.489689 41.487061 56.986717 105.778534
21 104.680779 11.144459 -10.335981 -27.802685 40.146809 53.454399 105.778534
[R_mid_hand02]
20 104.070427 2.443552 8.231699 61.107300 -59.107700 25.876715 104.424065
21 104.070427 2.443552 8.231699 63.327015 -56.459332 23.257946 104.424065
[R_mid_hand03]
20 106.028137 -11.221827 -5.996406 -174.261520 14.759502 -65.764908 106.788818
21 106.028137 -11.221827 -5.996406 -173.486588 14.440212 -62.692635 106.788818
[spine02]
20 129.756927 0.001550 0.000119 -0.315026 -15.091544 -3.938545 129.756927
21 129.756927 0.001550 0.000119 -0.338820 -15.186267 -3.810735 129.756927
[spine03]
20 78.561012 0.093038 -5.415633 1.180429 4.478942 6.591587 78.747520
21 78.563988 0.092388 -5.386930 1.227522 4.436633 7.191582 78.748512
[pelvis]
20 169.435242 0.051022 0.000000 -0.058910 -0.367401 8.053714 169.435257
21 169.435242 0.051022 0.000000 -0.059017 -0.353784 8.394348 169.435257
[null_rope03_connect]
20 -1.257226 -2.466202 137.391083 96.507660 -31.988375 14.675116 137.418976
21 -1.257226 -2.466202 137.391083 102.309196 -30.164383 7.676194 137.418976
[null_rope04_connect]
20 -1.259640 -2.480268 -137.844437 96.507660 -31.988375 14.675116 137.872513
21 -1.259640 -2.480268 -137.844437 102.309196 -30.164383 7.676194 137.872513
[Rope3_Seg01]
20 -0.000024 -0.000332 0.000000 -123.921135 -73.916946 -97.042915 0.000333
21 -0.000023 -0.000347 0.000000 -135.616562 -76.223137 -85.234940 0.000348
[Rope3_Seg02]
20 139.999924 -0.000119 0.000060 -0.647190 2.321535 -2.717597 139.999924
21 139.999924 -0.000119 0.000060 -1.099291 2.645402 -3.517103 139.999924
[Rope3_Seg03]
20 139.999924 -0.000119 0.000119 -1.191592 3.582243 -4.113934 139.999924
21 139.999924 -0.000119 0.000119 -2.226052 4.482432 -5.755994 139.999924
[Rope3_Seg04]
20 139.999924 0.000119 0.000000 -2.669950 6.324088 -7.026965 139.999924
21 139.999924 0.000119 0.000000 -5.854427 9.209556 -11.132292 139.999924
[Rope3_Seg05]
20 139.999924 -0.000238 0.000060 -7.403491 13.588834 -14.328110 139.999924
21 139.999924 -0.000238 0.000060 -17.609270 21.792732 -23.072222 139.999924
[Rope3_Seg06]
20 139.999893 -0.000119 -0.000060 -13.907339 22.416513 -20.230946 139.999893
21 139.999893 -0.000119 -0.000060 -16.212311 25.931620 -17.751078 139.999893
[Rope3_Seg07]
20 139.999771 0.000060 -0.000119 -15.663765 30.996311 -20.044561 139.999771
21 139.999771 0.000060 -0.000119 -13.750622 34.918762 -15.967311 139.999771
[Rope3_Seg08]
20 139.999985 -0.000060 0.000000 -5.914463 26.145229 -10.002835 139.999985
21 139.999985 -0.000060 0.000000 -1.845816 22.245272 -5.312990 139.999985
[Rope3_Seg09]
20 90.185997 -0.000179 -0.000060 75.902420 -1.358945 -0.844523 90.185997
21 90.185997 -0.000179 -0.000060 79.535660 -1.359328 -0.845998 90.185997
[R_rear_hand01]
20 103.366196 -6.073594 -10.757982 -156.049316 6.070419 -2.795869 104.101845
21 103.366196 -6.073594 -10.757982 -156.049316 6.070419 -2.795869 104.101845
[R_rear_hand02]
20 100.509819 12.039542 -7.992327 -38.708439 1.958052 5.461187 101.543350
21 100.509819 12.039542 -7.992327 -38.708424 1.958050 5.461185 101.543350
[R_rear_hand03]
20 101.539970 5.215704 5.435467 84.307625 -2.361032 4.099037 101.819031
21 101.539970 5.215704 5.435467 84.307625 -2.361032 4.099037 101.819031
[Rope4_Seg01]
20 -0.000009 -0.000351 -0.000153 20.626038 -58.648392 -62.537842 0.000382
21 -0.000009 -0.000365 -0.000153 20.739197 -55.496052 -62.397644 0.000396
[Rope4_Seg02]
20 139.999985 0.000060 0.000119 0.166291 -11.605176 -0.641582 139.999985
21 139.999985 0.000060 0.000119 -0.451195 -11.335960 2.208566 139.999985
[Rope4_Seg03]
20 139.999924 0.000000 -0.000238 1.837064 -16.333281 -0.881571 139.999924
21 139.999924 0.000000 -0.000238 1.471538 -18.307070 3.567816 139.999924
[Rope4_Seg04]
20 139.999985 0.000000 0.000119 4.746741 -20.012419 -3.394817 139.999985
21 139.999985 0.000000 0.000119 7.332700 -25.460798 1.828620 139.999985
[Rope4_Seg05]
20 139.999802 -0.000060 -0.000119 7.858366 -14.650792 -0.170396 139.999802
21 139.999802 -0.000060 -0.000119 12.852472 -17.382896 5.358490 139.999802
[Rope4_Seg06]
20 139.999924 0.000000 0.000060 18.085962 -10.653006 8.801851 139.999924
21 139.999924 0.000000 0.000060 17.174059 -6.440705 15.111283 139.999924
[Rope4_Seg07]
20 139.999802 0.000000 0.000000 25.656874 -6.872577 21.085712 139.999802
21 139.999802 0.000000 0.000000 13.952197 3.111727 21.592300 139.999802
[Rope4_Seg08]
20 139.999924 0.000000 0.000119 10.694858 0.116614 15.172259 139.999924
21 139.999924 0.000000 0.000119 3.383432 2.492815 11.422086 139.999924
[Rope4_Seg09]
20 90.185791 0.000060 0.000060 -135.617828 2.228885 0.850567 90.185791
21 90.185791 0.000060 0.000060 -135.617828 2.228885 0.850567 90.185791
[L_rear_hand01]
20 101.696655 -8.392275 -7.654577 -19.915020 -33.950905 119.950104 102.329041
21 101.696655 -8.392275 -7.654577 -19.915020 -33.950905 119.950104 102.329041
[L_rear_hand02]
20 102.726799 -1.568258 5.773216 77.862221 61.878510 165.399200 102.900848
21 102.726799 -1.568258 5.773216 77.862221 61.878510 165.399200 102.900848
[L_rear_hand03]
20 104.552910 9.721220 -10.420293 -173.099182 -23.740307 -117.327896 105.519653
21 104.552910 9.721220 -10.420293 -173.099182 -23.740307 -117.327896 105.519653
